<mxfile host="app.diagrams.net" agent="Mozilla/5.0 (Macintosh; Intel Mac OS X 10_15_7) AppleWebKit/537.36 (KHTML, like Gecko) Chrome/127.0.0.0 Safari/537.36" version="24.7.7">
  <diagram name="Page-1" id="BeHG4Al_jsVB_h0SICPz">
    <mxGraphModel dx="1325" dy="737" grid="1" gridSize="10" guides="1" tooltips="1" connect="1" arrows="1" fold="1" page="1" pageScale="1" pageWidth="850" pageHeight="1100" math="0" shadow="0">
      <root>
        <mxCell id="0" />
        <mxCell id="1" parent="0" />
        <mxCell id="lCo8VUCQgMjAbO_alJT4-1" value="Memory Controller + PHY" style="rounded=0;whiteSpace=wrap;html=1;fillColor=#d5e8d4;strokeColor=#82b366;fontSize=19;fontStyle=1" vertex="1" parent="1">
          <mxGeometry x="80" y="120" width="120" height="240" as="geometry" />
        </mxCell>
        <mxCell id="lCo8VUCQgMjAbO_alJT4-2" value="DRAM" style="rounded=0;whiteSpace=wrap;html=1;fillColor=#f8cecc;strokeColor=#b85450;fontSize=19;fontStyle=1" vertex="1" parent="1">
          <mxGeometry x="580" y="120" width="120" height="160" as="geometry" />
        </mxCell>
        <mxCell id="lCo8VUCQgMjAbO_alJT4-3" value="DRAM" style="rounded=0;whiteSpace=wrap;html=1;fillColor=#f8cecc;strokeColor=#b85450;fontSize=19;fontStyle=1" vertex="1" parent="1">
          <mxGeometry x="580" y="300" width="120" height="60" as="geometry" />
        </mxCell>
        <mxCell id="lCo8VUCQgMjAbO_alJT4-4" value="" style="shape=flexArrow;endArrow=classic;startArrow=classic;html=1;rounded=0;entryX=0;entryY=0.5;entryDx=0;entryDy=0;fillColor=#f5f5f5;strokeColor=#666666;" edge="1" parent="1" target="lCo8VUCQgMjAbO_alJT4-2">
          <mxGeometry width="100" height="100" relative="1" as="geometry">
            <mxPoint x="200" y="200" as="sourcePoint" />
            <mxPoint x="300" y="100" as="targetPoint" />
          </mxGeometry>
        </mxCell>
        <mxCell id="lCo8VUCQgMjAbO_alJT4-5" value="" style="shape=flexArrow;endArrow=classic;startArrow=classic;html=1;rounded=0;entryX=0;entryY=0.5;entryDx=0;entryDy=0;fillColor=#f5f5f5;strokeColor=#666666;" edge="1" parent="1" target="lCo8VUCQgMjAbO_alJT4-3">
          <mxGeometry width="100" height="100" relative="1" as="geometry">
            <mxPoint x="200" y="329.5" as="sourcePoint" />
            <mxPoint x="480" y="329.5" as="targetPoint" />
          </mxGeometry>
        </mxCell>
        <mxCell id="lCo8VUCQgMjAbO_alJT4-6" value="DATA" style="shape=hexagon;perimeter=hexagonPerimeter2;whiteSpace=wrap;html=1;fixedSize=1;fillColor=#ffe6cc;strokeColor=#d79b00;fontSize=14;fontStyle=1" vertex="1" parent="1">
          <mxGeometry x="262" y="160" width="70" height="30" as="geometry" />
        </mxCell>
        <mxCell id="lCo8VUCQgMjAbO_alJT4-7" value="DATA" style="shape=hexagon;perimeter=hexagonPerimeter2;whiteSpace=wrap;html=1;fixedSize=1;fillColor=#ffe6cc;strokeColor=#d79b00;fontSize=14;fontStyle=1" vertex="1" parent="1">
          <mxGeometry x="332" y="160" width="70" height="30" as="geometry" />
        </mxCell>
        <mxCell id="lCo8VUCQgMjAbO_alJT4-8" value="DATA" style="shape=hexagon;perimeter=hexagonPerimeter2;whiteSpace=wrap;html=1;fixedSize=1;fillColor=#ffe6cc;strokeColor=#d79b00;fontSize=14;fontStyle=1" vertex="1" parent="1">
          <mxGeometry x="442" y="160" width="70" height="30" as="geometry" />
        </mxCell>
        <mxCell id="lCo8VUCQgMjAbO_alJT4-9" value=". . ." style="text;html=1;align=center;verticalAlign=middle;whiteSpace=wrap;rounded=0;fontSize=26;fontStyle=1" vertex="1" parent="1">
          <mxGeometry x="392" y="150" width="60" height="30" as="geometry" />
        </mxCell>
        <mxCell id="lCo8VUCQgMjAbO_alJT4-10" value="ECC" style="shape=hexagon;perimeter=hexagonPerimeter2;whiteSpace=wrap;html=1;fixedSize=1;fillColor=#dae8fc;strokeColor=#6c8ebf;fontSize=14;fontStyle=1" vertex="1" parent="1">
          <mxGeometry x="372" y="290" width="70" height="30" as="geometry" />
        </mxCell>
        <mxCell id="lCo8VUCQgMjAbO_alJT4-11" value="Memory Controller + PHY" style="rounded=0;whiteSpace=wrap;html=1;fillColor=#d5e8d4;strokeColor=#82b366;fontSize=19;fontStyle=1" vertex="1" parent="1">
          <mxGeometry x="80" y="400" width="120" height="240" as="geometry" />
        </mxCell>
        <mxCell id="lCo8VUCQgMjAbO_alJT4-12" value="DRAM" style="rounded=0;whiteSpace=wrap;html=1;fillColor=#f8cecc;strokeColor=#b85450;fontSize=19;fontStyle=1" vertex="1" parent="1">
          <mxGeometry x="580" y="400" width="120" height="240" as="geometry" />
        </mxCell>
        <mxCell id="lCo8VUCQgMjAbO_alJT4-14" value="" style="shape=flexArrow;endArrow=classic;startArrow=classic;html=1;rounded=0;entryX=0;entryY=0.5;entryDx=0;entryDy=0;fillColor=#f5f5f5;strokeColor=#666666;exitX=1;exitY=0.5;exitDx=0;exitDy=0;" edge="1" parent="1" target="lCo8VUCQgMjAbO_alJT4-12" source="lCo8VUCQgMjAbO_alJT4-11">
          <mxGeometry width="100" height="100" relative="1" as="geometry">
            <mxPoint x="200" y="480" as="sourcePoint" />
            <mxPoint x="300" y="380" as="targetPoint" />
          </mxGeometry>
        </mxCell>
        <mxCell id="lCo8VUCQgMjAbO_alJT4-16" value="DATA" style="shape=hexagon;perimeter=hexagonPerimeter2;whiteSpace=wrap;html=1;fixedSize=1;fillColor=#ffe6cc;strokeColor=#d79b00;fontSize=14;fontStyle=1" vertex="1" parent="1">
          <mxGeometry x="227" y="480" width="70" height="30" as="geometry" />
        </mxCell>
        <mxCell id="lCo8VUCQgMjAbO_alJT4-17" value="DATA" style="shape=hexagon;perimeter=hexagonPerimeter2;whiteSpace=wrap;html=1;fixedSize=1;fillColor=#ffe6cc;strokeColor=#d79b00;fontSize=14;fontStyle=1" vertex="1" parent="1">
          <mxGeometry x="297" y="480" width="70" height="30" as="geometry" />
        </mxCell>
        <mxCell id="lCo8VUCQgMjAbO_alJT4-18" value="DATA" style="shape=hexagon;perimeter=hexagonPerimeter2;whiteSpace=wrap;html=1;fixedSize=1;fillColor=#ffe6cc;strokeColor=#d79b00;fontSize=14;fontStyle=1" vertex="1" parent="1">
          <mxGeometry x="407" y="480" width="70" height="30" as="geometry" />
        </mxCell>
        <mxCell id="lCo8VUCQgMjAbO_alJT4-19" value=". . ." style="text;html=1;align=center;verticalAlign=middle;whiteSpace=wrap;rounded=0;fontSize=26;fontStyle=1" vertex="1" parent="1">
          <mxGeometry x="357" y="470" width="60" height="30" as="geometry" />
        </mxCell>
        <mxCell id="lCo8VUCQgMjAbO_alJT4-20" value="ECC" style="shape=hexagon;perimeter=hexagonPerimeter2;whiteSpace=wrap;html=1;fixedSize=1;fillColor=#dae8fc;strokeColor=#6c8ebf;fontSize=14;fontStyle=1" vertex="1" parent="1">
          <mxGeometry x="477" y="480" width="70" height="30" as="geometry" />
        </mxCell>
      </root>
    </mxGraphModel>
  </diagram>
</mxfile>
